<svg height="512" viewBox="0 0 96 96" width="512" xmlns="http://www.w3.org/2000/svg" xmlns:xlink="http://www.w3.org/1999/xlink"><linearGradient id="New_Gradient_Swatch_1" gradientUnits="userSpaceOnUse" x1="33.515" x2="67.456" y1="75.456" y2="41.515"><stop offset="0" stop-color="#34cdfa"/><stop offset="1" stop-color="#e8d9f1"/></linearGradient><g id="_09-timer" data-name="09-timer"><g id="Flat"><path d="m44 4h8v16h-8z" fill="#99e6fd"/><path d="m36 0h24v8h-24z" fill="#34cdfa"/><path d="m70.343 20h11.314v8h-11.314z" fill="#99e6fd" transform="matrix(.707 -.707 .707 .707 5.286 60.763)"/><path d="m16 18.343h8v11.314h-8z" fill="#99e6fd" transform="matrix(.707 -.707 .707 .707 -11.113 21.172)"/><circle cx="48" cy="56" fill="#e6f9fe" r="36"/><path d="m60 84a36 36 0 0 1 -25.556-61.351 36 36 0 1 0 39.112 58.7 35.88 35.88 0 0 1 -13.556 2.651z" fill="#ccf2fe"/><path d="m48 96a40 40 0 1 1 40-40 40.045 40.045 0 0 1 -40 40zm0-72a32 32 0 1 0 32 32 32.036 32.036 0 0 0 -32-32z" fill="#34cdfa"/><path d="m48 32v24h-24a24 24 0 1 0 24-24z" fill="url(#New_Gradient_Swatch_1)"/></g></g></svg>